<svg xmlns="http://www.w3.org/2000/svg" width="1380" height="1260" viewBox="0 0 1380 1260">
  <title>Use case phân rã - Actor Admin</title>
  <defs>
    <marker id="arrow" markerWidth="9" markerHeight="9" refX="9" refY="4.5" orient="auto" markerUnits="strokeWidth">
      <path d="M0,0 L9,4.5 L0,9 Z" fill="#111"/>
    </marker>
    <style>
      text { font-family: "Segoe UI", Arial, sans-serif; fill: #111; }
      .title { font-size: 24px; font-weight: 700; }
      .label { font-size: 14px; }
      .small { font-size: 12px; }
      .tiny { font-size: 10px; }
      .boundary { fill: #fff; stroke: #111; stroke-width: 1.5; }
      .usecase { fill: #fff; stroke: #111; stroke-width: 1.3; }
      .actor { stroke: #111; stroke-width: 1.25; fill: none; }
      .line { stroke: #111; stroke-width: 1.15; fill: none; marker-end: url(#arrow); }
      .dashed { stroke: #111; stroke-width: 1; stroke-dasharray: 5 4; fill: none; marker-end: url(#arrow); }
      .box { fill: #fff; stroke: #111; stroke-width: 1.25; }
      .soft { fill: #f7f7f7; stroke: #111; stroke-width: 1.1; }
      .decision { fill: #fff; stroke: #111; stroke-width: 1.25; }
      .class { fill: #fff; stroke: #111; stroke-width: 1.2; }
      .classHead { fill: #efefef; stroke: #111; stroke-width: 1.2; }
      .relation { stroke: #111; stroke-width: 1; fill: none; }
      .participant { fill: #fff; stroke: #111; stroke-width: 1.2; }
      .lifeline { stroke: #888; stroke-width: 1; stroke-dasharray: 6 5; }
      .note { fill: #fffbe6; stroke: #111; stroke-width: 1; }
    </style>
  </defs>
  <rect width="100%" height="100%" fill="#fff"/>
  <text x="690" y="34" text-anchor="middle" class="title">Use case phân rã - Actor Admin</text>
<rect class="boundary" x="210" y="70" width="1110" height="1140"/>
<circle class="actor" cx="95" cy="594" r="10"/>
<path class="actor" d="M95 604 L95 648 M73 622 L117 622 M95 648 L75 682 M95 648 L115 682"/>
<text x="95" y="703" text-anchor="middle" class="small">Admin</text>
<ellipse class="usecase" cx="455" cy="130" rx="190" ry="31"/>
<text x="455" y="135" text-anchor="middle" class="small"><tspan x="455" y="135">UC13. Đăng ký, đăng nhập</tspan></text>
<path class="relation" d="M120 630 L265 130"/>
<ellipse class="usecase" cx="950" cy="100" rx="230" ry="18"/>
<text x="950" y="105" text-anchor="middle" class="small"><tspan x="950" y="105">Đăng ký tài khoản</tspan></text>
<path class="dashed" d="M645 130 L720 100"/><text x="683" y="110" text-anchor="middle" class="tiny">&lt;&lt;include&gt;&gt;</text>
<ellipse class="usecase" cx="950" cy="130" rx="230" ry="18"/>
<text x="950" y="135" text-anchor="middle" class="small"><tspan x="950" y="135">Đăng nhập</tspan></text>
<path class="dashed" d="M645 130 L720 130"/><text x="683" y="125" text-anchor="middle" class="tiny">&lt;&lt;extend&gt;&gt;</text>
<ellipse class="usecase" cx="950" cy="160" rx="230" ry="18"/>
<text x="950" y="165" text-anchor="middle" class="small"><tspan x="950" y="165">Kiểm tra email và mật khẩu</tspan></text>
<path class="dashed" d="M645 130 L720 160"/><text x="683" y="140" text-anchor="middle" class="tiny">&lt;&lt;extend&gt;&gt;</text>
<ellipse class="usecase" cx="455" cy="230" rx="190" ry="31"/>
<text x="455" y="235" text-anchor="middle" class="small"><tspan x="455" y="235">UC14. Dashboard thống kê</tspan></text>
<path class="relation" d="M120 630 L265 230"/>
<ellipse class="usecase" cx="950" cy="200" rx="230" ry="18"/>
<text x="950" y="205" text-anchor="middle" class="small"><tspan x="950" y="205">Xem tổng quan doanh thu</tspan></text>
<path class="dashed" d="M645 230 L720 200"/><text x="683" y="210" text-anchor="middle" class="tiny">&lt;&lt;include&gt;&gt;</text>
<ellipse class="usecase" cx="950" cy="230" rx="230" ry="18"/>
<text x="950" y="235" text-anchor="middle" class="small"><tspan x="950" y="235">Thống kê học viên</tspan></text>
<path class="dashed" d="M645 230 L720 230"/><text x="683" y="225" text-anchor="middle" class="tiny">&lt;&lt;extend&gt;&gt;</text>
<ellipse class="usecase" cx="950" cy="260" rx="230" ry="18"/>
<text x="950" y="265" text-anchor="middle" class="small"><tspan x="950" y="265">Thống kê lớp học</tspan></text>
<path class="dashed" d="M645 230 L720 260"/><text x="683" y="240" text-anchor="middle" class="tiny">&lt;&lt;extend&gt;&gt;</text>
<ellipse class="usecase" cx="455" cy="330" rx="190" ry="31"/>
<text x="455" y="335" text-anchor="middle" class="small"><tspan x="455" y="335">UC15. Quản lý bài viết</tspan></text>
<path class="relation" d="M120 630 L265 330"/>
<ellipse class="usecase" cx="950" cy="300" rx="230" ry="18"/>
<text x="950" y="305" text-anchor="middle" class="small"><tspan x="950" y="305">Xem danh sách bài viết</tspan></text>
<path class="dashed" d="M645 330 L720 300"/><text x="683" y="310" text-anchor="middle" class="tiny">&lt;&lt;include&gt;&gt;</text>
<ellipse class="usecase" cx="950" cy="330" rx="230" ry="18"/>
<text x="950" y="335" text-anchor="middle" class="small"><tspan x="950" y="335">Xem bài đã xóa</tspan></text>
<path class="dashed" d="M645 330 L720 330"/><text x="683" y="325" text-anchor="middle" class="tiny">&lt;&lt;extend&gt;&gt;</text>
<ellipse class="usecase" cx="950" cy="360" rx="230" ry="18"/>
<text x="950" y="365" text-anchor="middle" class="small"><tspan x="950" y="365">Tạo bài viết</tspan></text>
<path class="dashed" d="M645 330 L720 360"/><text x="683" y="340" text-anchor="middle" class="tiny">&lt;&lt;extend&gt;&gt;</text>
<ellipse class="usecase" cx="455" cy="430" rx="190" ry="31"/>
<text x="455" y="435" text-anchor="middle" class="small"><tspan x="455" y="435">UC16. Quản lý danh mục bài viết</tspan></text>
<path class="relation" d="M120 630 L265 430"/>
<ellipse class="usecase" cx="950" cy="400" rx="230" ry="18"/>
<text x="950" y="405" text-anchor="middle" class="small"><tspan x="950" y="405">Xem danh mục bài viết</tspan></text>
<path class="dashed" d="M645 430 L720 400"/><text x="683" y="410" text-anchor="middle" class="tiny">&lt;&lt;include&gt;&gt;</text>
<ellipse class="usecase" cx="950" cy="430" rx="230" ry="18"/>
<text x="950" y="435" text-anchor="middle" class="small"><tspan x="950" y="435">Tạo danh mục</tspan></text>
<path class="dashed" d="M645 430 L720 430"/><text x="683" y="425" text-anchor="middle" class="tiny">&lt;&lt;extend&gt;&gt;</text>
<ellipse class="usecase" cx="950" cy="460" rx="230" ry="18"/>
<text x="950" y="465" text-anchor="middle" class="small"><tspan x="950" y="465">Sửa danh mục</tspan></text>
<path class="dashed" d="M645 430 L720 460"/><text x="683" y="440" text-anchor="middle" class="tiny">&lt;&lt;extend&gt;&gt;</text>
<ellipse class="usecase" cx="455" cy="530" rx="190" ry="31"/>
<text x="455" y="535" text-anchor="middle" class="small"><tspan x="455" y="535">UC17. Xem audit bảo mật</tspan></text>
<path class="relation" d="M120 630 L265 530"/>
<ellipse class="usecase" cx="950" cy="500" rx="230" ry="18"/>
<text x="950" y="505" text-anchor="middle" class="small"><tspan x="950" y="505">Xem audit đăng nhập</tspan></text>
<path class="dashed" d="M645 530 L720 500"/><text x="683" y="510" text-anchor="middle" class="tiny">&lt;&lt;include&gt;&gt;</text>
<ellipse class="usecase" cx="950" cy="530" rx="230" ry="18"/>
<text x="950" y="535" text-anchor="middle" class="small"><tspan x="950" y="535">Lọc theo hành động</tspan></text>
<path class="dashed" d="M645 530 L720 530"/><text x="683" y="525" text-anchor="middle" class="tiny">&lt;&lt;extend&gt;&gt;</text>
<ellipse class="usecase" cx="950" cy="560" rx="230" ry="18"/>
<text x="950" y="565" text-anchor="middle" class="small"><tspan x="950" y="565">Lọc theo người dùng</tspan></text>
<path class="dashed" d="M645 530 L720 560"/><text x="683" y="540" text-anchor="middle" class="tiny">&lt;&lt;extend&gt;&gt;</text>
<ellipse class="usecase" cx="455" cy="630" rx="190" ry="31"/>
<text x="455" y="635" text-anchor="middle" class="small"><tspan x="455" y="635">UC18. Xem audit thanh toán</tspan></text>
<path class="relation" d="M120 630 L265 630"/>
<ellipse class="usecase" cx="950" cy="600" rx="230" ry="18"/>
<text x="950" y="605" text-anchor="middle" class="small"><tspan x="950" y="605">Xem toàn bộ thanh toán</tspan></text>
<path class="dashed" d="M645 630 L720 600"/><text x="683" y="610" text-anchor="middle" class="tiny">&lt;&lt;include&gt;&gt;</text>
<ellipse class="usecase" cx="950" cy="630" rx="230" ry="18"/>
<text x="950" y="635" text-anchor="middle" class="small"><tspan x="950" y="635">Lọc theo provider</tspan></text>
<path class="dashed" d="M645 630 L720 630"/><text x="683" y="625" text-anchor="middle" class="tiny">&lt;&lt;extend&gt;&gt;</text>
<ellipse class="usecase" cx="950" cy="660" rx="230" ry="18"/>
<text x="950" y="665" text-anchor="middle" class="small"><tspan x="950" y="665">Lọc theo trạng thái</tspan></text>
<path class="dashed" d="M645 630 L720 660"/><text x="683" y="640" text-anchor="middle" class="tiny">&lt;&lt;extend&gt;&gt;</text>
<ellipse class="usecase" cx="455" cy="730" rx="190" ry="31"/>
<text x="455" y="735" text-anchor="middle" class="small"><tspan x="455" y="735">UC19. Quản lý danh mục khóa học</tspan></text>
<path class="relation" d="M120 630 L265 730"/>
<ellipse class="usecase" cx="950" cy="700" rx="230" ry="18"/>
<text x="950" y="705" text-anchor="middle" class="small"><tspan x="950" y="705">Xem danh mục khóa học</tspan></text>
<path class="dashed" d="M645 730 L720 700"/><text x="683" y="710" text-anchor="middle" class="tiny">&lt;&lt;include&gt;&gt;</text>
<ellipse class="usecase" cx="950" cy="730" rx="230" ry="18"/>
<text x="950" y="735" text-anchor="middle" class="small"><tspan x="950" y="735">Xem danh mục đã xóa</tspan></text>
<path class="dashed" d="M645 730 L720 730"/><text x="683" y="725" text-anchor="middle" class="tiny">&lt;&lt;extend&gt;&gt;</text>
<ellipse class="usecase" cx="950" cy="760" rx="230" ry="18"/>
<text x="950" y="765" text-anchor="middle" class="small"><tspan x="950" y="765">Thêm danh mục</tspan></text>
<path class="dashed" d="M645 730 L720 760"/><text x="683" y="740" text-anchor="middle" class="tiny">&lt;&lt;extend&gt;&gt;</text>
<ellipse class="usecase" cx="455" cy="830" rx="190" ry="31"/>
<text x="455" y="835" text-anchor="middle" class="small"><tspan x="455" y="835">UC20. Quản lý khóa học</tspan></text>
<path class="relation" d="M120 630 L265 830"/>
<ellipse class="usecase" cx="950" cy="800" rx="230" ry="18"/>
<text x="950" y="805" text-anchor="middle" class="small"><tspan x="950" y="805">Xem khóa học</tspan></text>
<path class="dashed" d="M645 830 L720 800"/><text x="683" y="810" text-anchor="middle" class="tiny">&lt;&lt;include&gt;&gt;</text>
<ellipse class="usecase" cx="950" cy="830" rx="230" ry="18"/>
<text x="950" y="835" text-anchor="middle" class="small"><tspan x="950" y="835">Xem khóa học đã xóa</tspan></text>
<path class="dashed" d="M645 830 L720 830"/><text x="683" y="825" text-anchor="middle" class="tiny">&lt;&lt;extend&gt;&gt;</text>
<ellipse class="usecase" cx="950" cy="860" rx="230" ry="18"/>
<text x="950" y="865" text-anchor="middle" class="small"><tspan x="950" y="865">Thêm khóa học</tspan></text>
<path class="dashed" d="M645 830 L720 860"/><text x="683" y="840" text-anchor="middle" class="tiny">&lt;&lt;extend&gt;&gt;</text>
<ellipse class="usecase" cx="455" cy="930" rx="190" ry="31"/>
<text x="455" y="935" text-anchor="middle" class="small"><tspan x="455" y="935">UC21. Quản lý giảng viên</tspan></text>
<path class="relation" d="M120 630 L265 930"/>
<ellipse class="usecase" cx="950" cy="900" rx="230" ry="18"/>
<text x="950" y="905" text-anchor="middle" class="small"><tspan x="950" y="905">Xem giảng viên</tspan></text>
<path class="dashed" d="M645 930 L720 900"/><text x="683" y="910" text-anchor="middle" class="tiny">&lt;&lt;include&gt;&gt;</text>
<ellipse class="usecase" cx="950" cy="930" rx="230" ry="18"/>
<text x="950" y="935" text-anchor="middle" class="small"><tspan x="950" y="935">Xem chi tiết</tspan></text>
<path class="dashed" d="M645 930 L720 930"/><text x="683" y="925" text-anchor="middle" class="tiny">&lt;&lt;extend&gt;&gt;</text>
<ellipse class="usecase" cx="950" cy="960" rx="230" ry="18"/>
<text x="950" y="965" text-anchor="middle" class="small"><tspan x="950" y="965">Thêm giảng viên</tspan></text>
<path class="dashed" d="M645 930 L720 960"/><text x="683" y="940" text-anchor="middle" class="tiny">&lt;&lt;extend&gt;&gt;</text>
<ellipse class="usecase" cx="455" cy="1030" rx="190" ry="31"/>
<text x="455" y="1035" text-anchor="middle" class="small"><tspan x="455" y="1035">UC22. Quản lý người dùng</tspan></text>
<path class="relation" d="M120 630 L265 1030"/>
<ellipse class="usecase" cx="950" cy="1000" rx="230" ry="18"/>
<text x="950" y="1005" text-anchor="middle" class="small"><tspan x="950" y="1005">Xem danh sách user</tspan></text>
<path class="dashed" d="M645 1030 L720 1000"/><text x="683" y="1010" text-anchor="middle" class="tiny">&lt;&lt;include&gt;&gt;</text>
<ellipse class="usecase" cx="950" cy="1030" rx="230" ry="18"/>
<text x="950" y="1035" text-anchor="middle" class="small"><tspan x="950" y="1035">Xem chi tiết user</tspan></text>
<path class="dashed" d="M645 1030 L720 1030"/><text x="683" y="1025" text-anchor="middle" class="tiny">&lt;&lt;extend&gt;&gt;</text>
<ellipse class="usecase" cx="950" cy="1060" rx="230" ry="18"/>
<text x="950" y="1065" text-anchor="middle" class="small"><tspan x="950" y="1065">Tạo user</tspan></text>
<path class="dashed" d="M645 1030 L720 1060"/><text x="683" y="1040" text-anchor="middle" class="tiny">&lt;&lt;extend&gt;&gt;</text>
<ellipse class="usecase" cx="455" cy="1130" rx="190" ry="31"/>
<text x="455" y="1135" text-anchor="middle" class="small"><tspan x="455" y="1135">UC23. Phân quyền RBAC</tspan></text>
<path class="relation" d="M120 630 L265 1130"/>
<ellipse class="usecase" cx="950" cy="1100" rx="230" ry="18"/>
<text x="950" y="1105" text-anchor="middle" class="small"><tspan x="950" y="1105">Xem danh sách vai trò</tspan></text>
<path class="dashed" d="M645 1130 L720 1100"/><text x="683" y="1110" text-anchor="middle" class="tiny">&lt;&lt;include&gt;&gt;</text>
<ellipse class="usecase" cx="950" cy="1130" rx="230" ry="18"/>
<text x="950" y="1135" text-anchor="middle" class="small"><tspan x="950" y="1135">Xem danh sách quyền</tspan></text>
<path class="dashed" d="M645 1130 L720 1130"/><text x="683" y="1125" text-anchor="middle" class="tiny">&lt;&lt;extend&gt;&gt;</text>
<ellipse class="usecase" cx="950" cy="1160" rx="230" ry="18"/>
<text x="950" y="1165" text-anchor="middle" class="small"><tspan x="950" y="1165">Gán quyền cho vai trò</tspan></text>
<path class="dashed" d="M645 1130 L720 1160"/><text x="683" y="1140" text-anchor="middle" class="tiny">&lt;&lt;extend&gt;&gt;</text>
</svg>
