<svg xmlns="http://www.w3.org/2000/svg" width="1180" height="760" viewBox="0 0 1180 760">
  <title>Lớp - UC22. Quản lý người dùng</title>
  <defs>
    <marker id="arrow" markerWidth="9" markerHeight="9" refX="9" refY="4.5" orient="auto" markerUnits="strokeWidth">
      <path d="M0,0 L9,4.5 L0,9 Z" fill="#111"/>
    </marker>
    <style>
      text { font-family: "Segoe UI", Arial, sans-serif; fill: #111; }
      .title { font-size: 24px; font-weight: 700; }
      .label { font-size: 14px; }
      .small { font-size: 12px; }
      .tiny { font-size: 10px; }
      .boundary { fill: #fff; stroke: #111; stroke-width: 1.5; }
      .usecase { fill: #fff; stroke: #111; stroke-width: 1.3; }
      .actor { stroke: #111; stroke-width: 1.25; fill: none; }
      .line { stroke: #111; stroke-width: 1.15; fill: none; marker-end: url(#arrow); }
      .dashed { stroke: #111; stroke-width: 1; stroke-dasharray: 5 4; fill: none; marker-end: url(#arrow); }
      .box { fill: #fff; stroke: #111; stroke-width: 1.25; }
      .soft { fill: #f7f7f7; stroke: #111; stroke-width: 1.1; }
      .decision { fill: #fff; stroke: #111; stroke-width: 1.25; }
      .class { fill: #fff; stroke: #111; stroke-width: 1.2; }
      .classHead { fill: #efefef; stroke: #111; stroke-width: 1.2; }
      .relation { stroke: #111; stroke-width: 1; fill: none; }
      .participant { fill: #fff; stroke: #111; stroke-width: 1.2; }
      .lifeline { stroke: #888; stroke-width: 1; stroke-dasharray: 6 5; }
      .note { fill: #fffbe6; stroke: #111; stroke-width: 1; }
    </style>
  </defs>
  <rect width="100%" height="100%" fill="#fff"/>
  <text x="590" y="34" text-anchor="middle" class="title">Lớp - UC22. Quản lý người dùng</text>
<rect class="class" x="60" y="95" width="300" height="174"/>
<rect class="classHead" x="60" y="95" width="300" height="42"/>
<text x="210" y="123" text-anchor="middle" class="label"><tspan x="210" y="123">User</tspan></text>
<text x="72" y="157" class="small">+name</text>
<text x="72" y="175" class="small">+email</text>
<text x="72" y="193" class="small">+passwordHash</text>
<text x="72" y="211" class="small">+avatar</text>
<text x="72" y="229" class="small">+role</text>
<text x="72" y="247" class="small">+active</text>
<rect class="class" x="430" y="95" width="300" height="174"/>
<rect class="classHead" x="430" y="95" width="300" height="42"/>
<text x="580" y="123" text-anchor="middle" class="label"><tspan x="580" y="123">Role</tspan></text>
<text x="442" y="157" class="small">+code</text>
<text x="442" y="175" class="small">+type</text>
<text x="442" y="193" class="small">+name</text>
<text x="442" y="211" class="small">+priority</text>
<text x="442" y="229" class="small">+isSystem</text>
<text x="442" y="247" class="small">+isActive</text>
<rect class="class" x="800" y="95" width="300" height="138"/>
<rect class="classHead" x="800" y="95" width="300" height="42"/>
<text x="950" y="123" text-anchor="middle" class="label"><tspan x="950" y="123">UserRole</tspan></text>
<text x="812" y="157" class="small">+userId</text>
<text x="812" y="175" class="small">+roleId</text>
<text x="812" y="193" class="small">+isDeleted</text>
<text x="812" y="211" class="small">+deletedAt</text>
<rect class="class" x="60" y="330" width="300" height="174"/>
<rect class="classHead" x="60" y="330" width="300" height="42"/>
<text x="210" y="358" text-anchor="middle" class="label"><tspan x="210" y="358">SecurityAudit</tspan></text>
<text x="72" y="392" class="small">+user</text>
<text x="72" y="410" class="small">+userEmail</text>
<text x="72" y="428" class="small">+action</text>
<text x="72" y="446" class="small">+method</text>
<text x="72" y="464" class="small">+path</text>
<text x="72" y="482" class="small">+success</text>
<path class="relation" d="M360 182 L430 182"/>
<text x="395" y="177" text-anchor="middle" class="tiny">liên quan</text>
<path class="relation" d="M730 182 L800 164"/>
<text x="765" y="168" text-anchor="middle" class="tiny">liên quan</text>
<path class="relation" d="M800 164 L360 417"/>
<text x="580" y="286" text-anchor="middle" class="tiny">liên quan</text>
<rect class="note" x="60" y="650" width="1060" height="55" rx="6"/>
<text x="590" y="683" text-anchor="middle" class="small"><tspan x="590" y="683">Các lớp dùng cho chức năng: UC22. Quản lý người dùng</tspan></text>
</svg>
