<svg xmlns="http://www.w3.org/2000/svg" width="1260" height="650" viewBox="0 0 1260 650">
  <title>Use case phân rã - Quản lý - UC17. Xem audit bảo mật</title>
  <defs>
    <marker id="arrow" markerWidth="9" markerHeight="9" refX="9" refY="4.5" orient="auto" markerUnits="strokeWidth">
      <path d="M0,0 L9,4.5 L0,9 Z" fill="#111"/>
    </marker>
    <style>
      text { font-family: "Segoe UI", Arial, sans-serif; fill: #111; }
      .title { font-size: 24px; font-weight: 700; }
      .label { font-size: 14px; }
      .small { font-size: 12px; }
      .tiny { font-size: 10px; }
      .boundary { fill: #fff; stroke: #111; stroke-width: 1.5; }
      .usecase { fill: #fff; stroke: #111; stroke-width: 1.3; }
      .actor { stroke: #111; stroke-width: 1.25; fill: none; }
      .line { stroke: #111; stroke-width: 1.15; fill: none; marker-end: url(#arrow); }
      .dashed { stroke: #111; stroke-width: 1; stroke-dasharray: 5 4; fill: none; marker-end: url(#arrow); }
      .box { fill: #fff; stroke: #111; stroke-width: 1.25; }
      .soft { fill: #f7f7f7; stroke: #111; stroke-width: 1.1; }
      .decision { fill: #fff; stroke: #111; stroke-width: 1.25; }
      .class { fill: #fff; stroke: #111; stroke-width: 1.2; }
      .classHead { fill: #efefef; stroke: #111; stroke-width: 1.2; }
      .relation { stroke: #111; stroke-width: 1; fill: none; }
      .participant { fill: #fff; stroke: #111; stroke-width: 1.2; }
      .lifeline { stroke: #888; stroke-width: 1; stroke-dasharray: 6 5; }
      .note { fill: #fffbe6; stroke: #111; stroke-width: 1; }
    </style>
  </defs>
  <rect width="100%" height="100%" fill="#fff"/>
  <text x="630" y="34" text-anchor="middle" class="title">Use case phân rã - Quản lý - UC17. Xem audit bảo mật</text>
<rect class="boundary" x="210" y="65" width="980" height="535"/>
<text x="230" y="94" class="small">Phạm vi chức năng của actor Quản lý</text>
<text x="230" y="116" class="tiny">Chỉ vẽ các use case con mà actor này thực hiện trong chức năng UC17.</text>
<circle class="actor" cx="92" cy="294" r="10"/>
<path class="actor" d="M92 304 L92 348 M70 322 L114 322 M92 348 L72 382 M92 348 L112 382"/>
<text x="92" y="403" text-anchor="middle" class="small">Quản lý</text>
<ellipse class="usecase" cx="455" cy="330" rx="190" ry="36"/>
<text x="455" y="335" text-anchor="middle" class="small"><tspan x="455" y="335">UC17. Xem audit bảo mật</tspan></text>
<path class="relation" d="M118 330 L265 330"/>
<ellipse class="usecase" cx="920" cy="155" rx="220" ry="25"/>
<text x="920" y="160" text-anchor="middle" class="small"><tspan x="920" y="160">Xem audit đăng nhập</tspan></text>
<path class="dashed" d="M645 330 L700 155"/><text x="673" y="238" text-anchor="middle" class="tiny">&lt;&lt;include&gt;&gt;</text>
<ellipse class="usecase" cx="920" cy="225" rx="220" ry="25"/>
<text x="920" y="230" text-anchor="middle" class="small"><tspan x="920" y="230">Lọc theo hành động</tspan></text>
<path class="dashed" d="M645 330 L700 225"/><text x="673" y="273" text-anchor="middle" class="tiny">&lt;&lt;include&gt;&gt;</text>
<ellipse class="usecase" cx="920" cy="295" rx="220" ry="25"/>
<text x="920" y="300" text-anchor="middle" class="small"><tspan x="920" y="300">Lọc theo người dùng</tspan></text>
<path class="dashed" d="M645 330 L700 295"/><text x="673" y="308" text-anchor="middle" class="tiny">&lt;&lt;include&gt;&gt;</text>
<ellipse class="usecase" cx="920" cy="365" rx="220" ry="25"/>
<text x="920" y="370" text-anchor="middle" class="small"><tspan x="920" y="370">Lọc theo trạng thái</tspan></text>
<path class="dashed" d="M645 330 L700 365"/><text x="673" y="343" text-anchor="middle" class="tiny">&lt;&lt;include&gt;&gt;</text>
<ellipse class="usecase" cx="920" cy="435" rx="220" ry="25"/>
<text x="920" y="440" text-anchor="middle" class="small"><tspan x="920" y="440">Xem chi tiết request</tspan></text>
<path class="dashed" d="M645 330 L700 435"/><text x="673" y="378" text-anchor="middle" class="tiny">&lt;&lt;include&gt;&gt;</text>
<ellipse class="usecase" cx="920" cy="505" rx="220" ry="25"/>
<text x="920" y="510" text-anchor="middle" class="small"><tspan x="920" y="510">Phân trang</tspan></text>
<path class="dashed" d="M645 330 L700 505"/><text x="673" y="413" text-anchor="middle" class="tiny">&lt;&lt;include&gt;&gt;</text>
<rect class="note" x="240" y="592" width="920" height="34" rx="5"/>
<text x="700" y="617" text-anchor="middle" class="tiny"><tspan x="700" y="617">Sơ đồ riêng: Actor Quản lý - UC17. Xem audit bảo mật</tspan></text>
</svg>
