<svg xmlns="http://www.w3.org/2000/svg" width="1180" height="560" viewBox="0 0 1180 560">
  <title>Bieu do trien khai he thong</title>
  <defs>
    <marker id="arrow" viewBox="0 0 12 10" markerWidth="12" markerHeight="10" refX="12" refY="5" orient="auto" markerUnits="userSpaceOnUse">
      <path d="M0 0 L12 5 L0 10 Z" fill="#111"/>
    </marker>
    <style>
      text { font-family: "Segoe UI", Arial, sans-serif; fill: #111; }
      .title { font-size: 24px; font-weight: 700; }
      .label { font-size: 14px; }
      .small { font-size: 12px; }
      .tiny { font-size: 10px; }
      .boundary { fill: #fff; stroke: #111; stroke-width: 1.5; }
      .usecase { fill: #fff; stroke: #111; stroke-width: 1.3; }
      .actor { stroke: #111; stroke-width: 1.25; fill: none; }
      .line { stroke: #111; stroke-width: 1.15; fill: none; marker-end: url(#arrow); }
      .dashed { stroke: #111; stroke-width: 1; stroke-dasharray: 5 4; fill: none; marker-end: url(#arrow); }
      .box { fill: #fff; stroke: #111; stroke-width: 1.25; }
      .soft { fill: #f7f7f7; stroke: #111; stroke-width: 1.1; }
      .decision { fill: #fff; stroke: #111; stroke-width: 1.25; }
      .class { fill: #fff; stroke: #111; stroke-width: 1.2; }
      .classHead { fill: #efefef; stroke: #111; stroke-width: 1.2; }
      .relation { stroke: #111; stroke-width: 1; fill: none; }
      .participant { fill: #fff; stroke: #111; stroke-width: 1.2; }
      .lifeline { stroke: #888; stroke-width: 1; stroke-dasharray: 6 5; }
      .note { fill: #fffbe6; stroke: #111; stroke-width: 1; }
    </style>
  </defs>
  <rect width="100%" height="100%" fill="#fff"/>
  
<text x="54" y="42" class="label" font-weight="700" font-style="italic">2.3.7. Bieu do trien khai</text>
<polygon points="65,110 77,98 377,98 365,110" fill="#9fdef4" stroke="#111" stroke-width="1.1"/>
<polygon points="365,110 377,98 377,308 365,320" fill="#55afd9" stroke="#111" stroke-width="1.1"/>
<rect x="65" y="110" width="300" height="210" fill="#69c3e8" stroke="#111" stroke-width="1.1"/>
<text x="215" y="132" text-anchor="middle" class="tiny" font-weight="400">&lt;&lt;device&gt;&gt;</text>
<text x="215" y="146" text-anchor="middle" class="tiny" font-weight="700">User</text>
<polygon points="140,180 154,166 289,166 275,180" fill="#9fdef4" stroke="#111" stroke-width="1.1"/>
<polygon points="275,180 289,166 289,246 275,260" fill="#55afd9" stroke="#111" stroke-width="1.1"/>
<rect x="140" y="180" width="135" height="80" fill="#69c3e8" stroke="#111" stroke-width="1.1"/>
<text x="207.5" y="202" text-anchor="middle" class="tiny" font-weight="400">Frontend App</text>
<text x="207.5" y="216" text-anchor="middle" class="tiny" font-weight="700">Next.js</text>
<polygon points="460,110 472,98 742,98 730,110" fill="#9fdef4" stroke="#111" stroke-width="1.1"/>
<polygon points="730,110 742,98 742,308 730,320" fill="#55afd9" stroke="#111" stroke-width="1.1"/>
<rect x="460" y="110" width="270" height="210" fill="#69c3e8" stroke="#111" stroke-width="1.1"/>
<text x="595" y="132" text-anchor="middle" class="tiny" font-weight="700">Backend Server</text>
<polygon points="505,158 519,144 724,144 710,158" fill="#9fdef4" stroke="#111" stroke-width="1.1"/>
<polygon points="710,158 724,144 724,279 710,293" fill="#55afd9" stroke="#111" stroke-width="1.1"/>
<rect x="505" y="158" width="205" height="135" fill="#69c3e8" stroke="#111" stroke-width="1.1"/>
<text x="607.5" y="180" text-anchor="middle" class="tiny" font-weight="700">Node.js / Express</text>
<polygon points="555,198 569,184 699,184 685,198" fill="#9fdef4" stroke="#111" stroke-width="1.1"/>
<polygon points="685,198 699,184 699,259 685,273" fill="#55afd9" stroke="#111" stroke-width="1.1"/>
<rect x="555" y="198" width="130" height="75" fill="#69c3e8" stroke="#111" stroke-width="1.1"/>
<text x="620" y="220" text-anchor="middle" class="tiny" font-weight="700">API Service</text>
<polygon points="820,110 832,98 1072,98 1060,110" fill="#9fdef4" stroke="#111" stroke-width="1.1"/>
<polygon points="1060,110 1072,98 1072,268 1060,280" fill="#55afd9" stroke="#111" stroke-width="1.1"/>
<rect x="820" y="110" width="240" height="170" fill="#69c3e8" stroke="#111" stroke-width="1.1"/>
<text x="940" y="132" text-anchor="middle" class="tiny" font-weight="700">MongoDB Database</text>
<polygon points="890,178 904,164 1029,164 1015,178" fill="#9fdef4" stroke="#111" stroke-width="1.1"/>
<polygon points="1015,178 1029,164 1029,234 1015,248" fill="#55afd9" stroke="#111" stroke-width="1.1"/>
<rect x="890" y="178" width="125" height="70" fill="#69c3e8" stroke="#111" stroke-width="1.1"/>
<text x="952.5" y="200" text-anchor="middle" class="tiny" font-weight="400">Application</text>
<text x="952.5" y="214" text-anchor="middle" class="tiny" font-weight="700">Collections</text>
<polygon points="460,390 472,378 657,378 645,390" fill="#9fdef4" stroke="#111" stroke-width="1.1"/>
<polygon points="645,390 657,378 657,473 645,485" fill="#55afd9" stroke="#111" stroke-width="1.1"/>
<rect x="460" y="390" width="185" height="95" fill="#69c3e8" stroke="#111" stroke-width="1.1"/>
<text x="552.5" y="412" text-anchor="middle" class="tiny" font-weight="700">Cloudinary</text>
<polygon points="510,435 524,421 614,421 600,435" fill="#9fdef4" stroke="#111" stroke-width="1.1"/>
<polygon points="600,435 614,421 614,459 600,473" fill="#55afd9" stroke="#111" stroke-width="1.1"/>
<rect x="510" y="435" width="90" height="38" fill="#69c3e8" stroke="#111" stroke-width="1.1"/>
<text x="555" y="457" text-anchor="middle" class="tiny" font-weight="700">Image Storage</text>
<polygon points="820,390 832,378 1017,378 1005,390" fill="#9fdef4" stroke="#111" stroke-width="1.1"/>
<polygon points="1005,390 1017,378 1017,473 1005,485" fill="#55afd9" stroke="#111" stroke-width="1.1"/>
<rect x="820" y="390" width="185" height="95" fill="#69c3e8" stroke="#111" stroke-width="1.1"/>
<text x="912.5" y="412" text-anchor="middle" class="tiny" font-weight="700">VNPay / PayOS</text>
<polygon points="870,435 884,421 974,421 960,435" fill="#9fdef4" stroke="#111" stroke-width="1.1"/>
<polygon points="960,435 974,421 974,459 960,473" fill="#55afd9" stroke="#111" stroke-width="1.1"/>
<rect x="870" y="435" width="90" height="38" fill="#69c3e8" stroke="#111" stroke-width="1.1"/>
<text x="915" y="457" text-anchor="middle" class="tiny" font-weight="700">Payment Gateway</text>
<path d="M365 215 H460" stroke="#111" stroke-width="1.1" fill="none"/>
<path d="M730 215 H820" stroke="#111" stroke-width="1.1" fill="none"/>
<path d="M595 320 V390" stroke="#111" stroke-width="1.1" fill="none"/>
<path d="M730 255 L912 390" stroke="#111" stroke-width="1.1" fill="none"/>
</svg>
