<svg width="40" height="40" viewBox="0 0 40 40" fill="none" xmlns="http://www.w3.org/2000/svg">
<circle cx="20" cy="20" r="20" fill="#A2A5A9"/>
<mask id="mask0_7687_21" style="mask-type:alpha" maskUnits="userSpaceOnUse" x="0" y="0" width="40" height="40">
<circle cx="20" cy="20" r="20" fill="#D9D9D9"/>
</mask>
<g mask="url(#mask0_7687_21)">
<rect width="42" height="40" transform="translate(-1)" fill="#D9D9D9"/>
<path d="M6.53935 34.9016C6.37777 34.8329 6.25545 34.7458 6.4508 34.5846C6.56765 34.4884 6.70093 34.4114 6.82781 34.3289C8.02002 33.5519 9.14193 32.6961 9.88135 31.4435C10.4994 30.3962 10.4008 29.785 9.63031 29.0117C5.30698 24.6666 3.40001 19.4684 4.35121 13.3338C4.88889 9.86748 6.46997 6.87578 8.76491 4.27349C10.1506 2.70205 11.8029 1.42656 13.6113 0.361825C13.7181 0.298601 13.8797 0.283024 13.8998 0.119923C13.8642 0.0310424 13.7939 0.057615 13.74 0.057615C10.6673 0.057615 7.59188 -0.00286055 4.52101 0.0768572C1.59162 0.151077 -0.952532 2.43357 -0.946142 5.70933C-0.926972 15.2691 -0.946142 24.8279 -0.947968 34.3876C-0.947968 37.3518 1.3059 39.8377 4.25536 39.9522C6.74566 40.0494 9.24325 39.9678 11.7381 39.9651C11.9207 39.9706 12.1023 39.9816 12.2849 39.9816C16.6813 39.9825 21.0785 39.9816 25.4749 39.9816C28.7612 39.9816 32.0475 39.9944 35.3329 39.977C38.423 39.9605 40.8494 37.492 40.853 34.3977C40.8549 32.6109 40.8548 30.8241 40.8512 29.0373C40.8512 28.9072 40.895 28.7679 40.8138 28.6378C40.6531 28.6506 40.5892 28.7863 40.4988 28.8761C38.7096 30.6692 36.6584 32.0886 34.3498 33.1093C28.7347 35.5907 23.0175 35.7703 17.2281 33.7691C16.6986 33.5858 16.1819 33.5666 15.6607 33.7004C14.8957 33.8974 14.1371 34.1228 13.3813 34.3555C11.1402 35.0446 8.87081 35.3607 6.53935 34.9007V34.9016ZM13.1549 19.4629C13.3064 19.2632 13.3959 19.1422 13.4881 19.024C14.6839 17.5011 15.8816 15.981 17.0747 14.4563C17.4225 14.0119 17.7703 13.5647 17.9894 13.0379C18.2405 12.4331 17.9684 11.8623 17.3513 11.6488C17.072 11.5516 16.7826 11.5443 16.4951 11.5434C14.8674 11.5379 13.2398 11.5379 11.6121 11.5434C11.3867 11.5443 11.153 11.5654 10.9366 11.6268C10.4793 11.756 10.2091 12.1289 10.2127 12.5696C10.2164 13.0095 10.4948 13.3778 10.954 13.4988C11.1712 13.5556 11.404 13.5739 11.6304 13.5757C12.619 13.584 13.6077 13.5757 14.5963 13.5831C14.7031 13.5831 14.8391 13.5134 14.9258 13.6701C14.8446 13.7773 14.7633 13.8864 14.6794 13.9926C13.2681 15.7923 11.8568 17.5909 10.4464 19.3906C10.0959 19.8377 9.91969 20.3307 10.1735 20.8804C10.4263 21.4284 10.9448 21.5338 11.4743 21.5649C11.8988 21.5897 12.326 21.575 12.7514 21.575C14.2266 21.575 15.7027 21.5851 17.1779 21.5686C17.9602 21.5594 18.381 21.0793 18.297 20.3545C18.2304 19.7818 17.8388 19.473 17.1149 19.4666C15.8259 19.4556 14.537 19.4639 13.1549 19.4639V19.4629ZM23.7441 14.6396C22.6049 13.6417 21.346 13.5803 20.1082 14.3106C18.6165 15.1912 18.0615 16.627 18.2514 18.3002C18.4276 19.8579 19.0976 21.1297 20.7234 21.6584C21.7367 21.9883 22.6742 21.87 23.5059 21.1938C23.7204 21.0188 23.7861 21.0527 23.9404 21.2479C24.2544 21.6465 24.7455 21.7628 25.2156 21.6025C25.6648 21.4495 25.9715 21.0655 25.9752 20.5652C25.9861 18.7336 25.9952 16.9019 25.9706 15.0702C25.9615 14.3381 25.2814 13.8708 24.5639 14.0174C24.1878 14.0944 23.9669 14.3592 23.745 14.6396H23.7441ZM30.0703 18.0408C30.0365 20.3288 31.9261 22.0625 34.2968 21.8242C36.4795 21.6043 37.8944 19.9623 37.8241 17.6459C37.7548 15.3588 36.0495 13.7901 33.7254 13.8625C31.5382 13.9303 30 15.6878 30.0703 18.0408ZM29.2706 16.2192C29.2706 14.7843 29.277 13.3494 29.2679 11.9145C29.2633 11.1851 28.7986 10.7261 28.1049 10.7334C27.433 10.7398 26.9866 11.197 26.9747 11.9017C26.9674 12.3287 26.9729 12.7566 26.9729 13.1836C26.9729 15.6108 26.9711 18.0372 26.9747 20.4644C26.9747 21.0362 27.3198 21.5274 27.7808 21.6437C28.5485 21.838 29.2624 21.2891 29.2679 20.4773C29.2779 19.0579 29.2706 17.6386 29.2706 16.2183V16.2192Z" fill="#A2A5A9"/>
<path d="M13.1549 19.4629C14.536 19.4629 15.825 19.4546 17.1149 19.4656C17.8388 19.472 18.2304 19.7808 18.297 20.3535C18.381 21.0783 17.9602 21.5594 17.1779 21.5676C15.7027 21.5841 14.2266 21.574 12.7514 21.574C12.3251 21.574 11.8988 21.5887 11.4743 21.5639C10.9448 21.5337 10.4272 21.4283 10.1735 20.8795C9.91969 20.3297 10.0959 19.8367 10.4464 19.3896C11.8568 17.59 13.2681 15.7913 14.6794 13.9917C14.7633 13.8845 14.8437 13.7754 14.9258 13.6691C14.84 13.5124 14.7031 13.583 14.5963 13.5821C13.6077 13.5757 12.619 13.5821 11.6304 13.5748C11.404 13.5729 11.1721 13.5546 10.954 13.4978C10.4948 13.3768 10.2164 13.0085 10.2127 12.5687C10.2091 12.1279 10.4793 11.755 10.9366 11.6258C11.153 11.5644 11.3867 11.5433 11.6121 11.5424C13.2398 11.536 14.8674 11.536 16.4951 11.5424C16.7826 11.5433 17.072 11.5507 17.3513 11.6478C17.9684 11.8613 18.2405 12.433 17.9894 13.0369C17.7712 13.5638 17.4225 14.0109 17.0747 14.4553C15.8816 15.98 14.6839 17.5002 13.4881 19.0231C13.395 19.1413 13.3055 19.2622 13.1549 19.462V19.4629Z" fill="#A2A5A9"/>
<path d="M23.7441 14.6399C23.966 14.3586 24.1869 14.0947 24.563 14.0177C25.2805 13.8711 25.9606 14.3384 25.9697 15.0705C25.9934 16.9022 25.9852 18.7339 25.9743 20.5655C25.9715 21.0658 25.6639 21.4489 25.2148 21.6028C24.7437 21.7631 24.2535 21.6468 23.9395 21.2482C23.7852 21.053 23.7195 21.02 23.505 21.1941C22.6733 21.8704 21.7358 21.9886 20.7226 21.6587C19.0967 21.1291 18.4276 19.8572 18.2505 18.3005C18.0606 16.6273 18.6157 15.1915 20.1073 14.3109C21.346 13.5797 22.604 13.6411 23.7432 14.6399H23.7441ZM20.5172 17.9898C20.5263 18.305 20.6294 18.7284 20.9015 19.0967C21.4921 19.8966 22.7044 19.8939 23.295 19.0949C23.8071 18.4022 23.8044 17.2531 23.2923 16.5604C23.0211 16.1948 22.6596 16.0033 22.2087 15.9767C21.2082 15.9181 20.5071 16.6951 20.5172 17.9898Z" fill="#A2A5A9"/>
<path d="M30.0712 18.041C30.0018 15.688 31.5391 13.9305 33.7263 13.8627C36.0504 13.7912 37.7557 15.3599 37.825 17.6461C37.8953 19.9616 36.4804 21.6045 34.2977 21.8244C31.927 22.0626 30.0374 20.329 30.0712 18.041ZM32.367 17.8193C32.3643 18.2884 32.4747 18.7255 32.7559 19.1057C33.3328 19.8846 34.5333 19.891 35.122 19.1232C35.6533 18.4304 35.6552 17.2539 35.1312 16.5539C34.8582 16.1892 34.4949 16.0004 34.0449 15.9766C33.059 15.9244 32.3716 16.6812 32.367 17.8202V17.8193Z" fill="#A2A5A9"/>
<path d="M29.2715 16.2194C29.2715 17.6388 29.2788 19.0581 29.2688 20.4784C29.2633 21.2902 28.5494 21.8391 27.7817 21.6448C27.3207 21.5284 26.9766 21.0373 26.9757 20.4655C26.972 18.0383 26.9738 15.6119 26.9738 13.1846C26.9738 12.7576 26.9684 12.3297 26.9757 11.9027C26.9875 11.1981 27.4348 10.7409 28.1058 10.7345C28.7996 10.7271 29.2642 11.1862 29.2688 11.9156C29.2779 13.3505 29.2715 14.7854 29.2715 16.2203V16.2194Z" fill="#A2A5A9"/>
<path d="M20.5171 17.9898C20.5071 16.6951 21.2073 15.9181 22.2087 15.9767C22.6596 16.0033 23.0211 16.1948 23.2922 16.5604C23.8044 17.2522 23.8071 18.4022 23.295 19.0949C22.7044 19.8939 21.4921 19.8966 20.9015 19.0967C20.6294 18.7293 20.5263 18.305 20.5171 17.9898Z" fill="#D9D9D9"/>
<path d="M32.3661 17.8193C32.3707 16.6803 33.0581 15.9235 34.044 15.9757C34.494 15.9995 34.8573 16.1883 35.1303 16.553C35.6543 17.253 35.6525 18.4295 35.1212 19.1222C34.5324 19.8901 33.3319 19.8846 32.755 19.1048C32.4739 18.7246 32.3634 18.2875 32.3661 17.8184V17.8193Z" fill="#D9D9D9"/>
</g>
</svg>
