<svg xmlns="http://www.w3.org/2000/svg" width="860" height="835" viewBox="0 0 860 835">
  <title>Hoạt động - UC08. Xem thông báo</title>
  <defs>
    <marker id="arrow" markerWidth="9" markerHeight="9" refX="9" refY="4.5" orient="auto" markerUnits="strokeWidth">
      <path d="M0,0 L9,4.5 L0,9 Z" fill="#111"/>
    </marker>
    <style>
      text { font-family: "Segoe UI", Arial, sans-serif; fill: #111; }
      .title { font-size: 24px; font-weight: 700; }
      .label { font-size: 14px; }
      .small { font-size: 12px; }
      .tiny { font-size: 10px; }
      .boundary { fill: #fff; stroke: #111; stroke-width: 1.5; }
      .usecase { fill: #fff; stroke: #111; stroke-width: 1.3; }
      .actor { stroke: #111; stroke-width: 1.25; fill: none; }
      .line { stroke: #111; stroke-width: 1.15; fill: none; marker-end: url(#arrow); }
      .dashed { stroke: #111; stroke-width: 1; stroke-dasharray: 5 4; fill: none; marker-end: url(#arrow); }
      .box { fill: #fff; stroke: #111; stroke-width: 1.25; }
      .soft { fill: #f7f7f7; stroke: #111; stroke-width: 1.1; }
      .decision { fill: #fff; stroke: #111; stroke-width: 1.25; }
      .class { fill: #fff; stroke: #111; stroke-width: 1.2; }
      .classHead { fill: #efefef; stroke: #111; stroke-width: 1.2; }
      .relation { stroke: #111; stroke-width: 1; fill: none; }
      .participant { fill: #fff; stroke: #111; stroke-width: 1.2; }
      .lifeline { stroke: #888; stroke-width: 1; stroke-dasharray: 6 5; }
      .note { fill: #fffbe6; stroke: #111; stroke-width: 1; }
    </style>
  </defs>
  <rect width="100%" height="100%" fill="#fff"/>
  <text x="430" y="34" text-anchor="middle" class="title">Hoạt động - UC08. Xem thông báo</text>
<rect class="boundary" x="25" y="55" width="810" height="745"/>
<line class="relation" x1="25" y1="79" x2="835" y2="79"/>
<line class="relation" x1="25" y1="109" x2="835" y2="109"/>
<line class="relation" x1="375" y1="79" x2="375" y2="800"/>
<text x="430" y="72" text-anchor="middle" class="tiny"><tspan x="430" y="72">UC08. Xem thông báo</tspan></text>
<text x="200" y="99" text-anchor="middle" class="tiny"><tspan x="200" y="99">Học viên/Người dùng</tspan></text>
<text x="605" y="99" text-anchor="middle" class="tiny"><tspan x="605" y="99">Hệ thống</tspan></text>
<circle cx="200" cy="147" r="12" fill="#111"/>
<rect class="box" x="70" y="191" width="260" height="56" rx="8"/>
<text x="200" y="224" text-anchor="middle" class="small"><tspan x="200" y="224">Chọn Xem thông báo</tspan></text>
<rect class="box" x="475" y="279" width="260" height="56" rx="8"/>
<text x="605" y="312" text-anchor="middle" class="small"><tspan x="605" y="312">Hiển thị dữ liệu</tspan></text>
<rect class="box" x="70" y="367" width="260" height="56" rx="8"/>
<text x="200" y="400" text-anchor="middle" class="small"><tspan x="200" y="400">Chọn điều kiện</tspan></text>
<rect class="box" x="475" y="455" width="260" height="56" rx="8"/>
<text x="605" y="488" text-anchor="middle" class="small"><tspan x="605" y="488">Xem danh sách thông báo</tspan></text>
<rect class="box" x="475" y="543" width="260" height="56" rx="8"/>
<text x="605" y="576" text-anchor="middle" class="small"><tspan x="605" y="576">Hiển thị kết quả</tspan></text>
<path class="line" d="M200 159 L200 191"/>
<path class="line" d="M330 219 L605 219 L605 279"/>
<path class="line" d="M475 307 L200 307 L200 367"/>
<path class="line" d="M330 395 L605 395 L605 455"/>
<path class="line" d="M605 511 L605 543"/>
<path class="line" d="M605 599 L605 647"/>
<path class="decision" d="M605 647 L675 683 L605 719 L535 683 Z"/>
<text x="605" y="688" text-anchor="middle" class="tiny"><tspan x="605" y="688">Thành công?</tspan></text>
<path class="line" d="M605 719 L605 777"/><text x="633" y="753" text-anchor="middle" class="tiny">true</text>
<circle cx="605" cy="791" r="14" fill="#fff" stroke="#111" stroke-width="1.5"/><circle cx="605" cy="791" r="9" fill="#111"/>
<rect class="soft" x="693" y="654" width="140" height="58" rx="8"/>
<text x="763" y="688" text-anchor="middle" class="small"><tspan x="763" y="688">Không có thông báo</tspan></text>
<path class="line" d="M675 683 L693 683"/><text x="671" y="675" text-anchor="middle" class="tiny">false</text>
<path class="dashed" d="M763 712 L763 740 L49 740 L49 395 L70 395"/>
</svg>
