<svg xmlns="http://www.w3.org/2000/svg" width="620" height="1180" viewBox="0 0 620 1180">
  <title>Use case tổng quát</title>
  <defs>
    <marker id="arrow" viewBox="0 0 12 10" markerWidth="12" markerHeight="10" refX="12" refY="5" orient="auto" markerUnits="userSpaceOnUse">
      <path d="M0 0 L12 5 L0 10 Z" fill="#111"/>
    </marker>
    <style>
      text { font-family: "Segoe UI", Arial, sans-serif; fill: #111; }
      .title { font-size: 24px; font-weight: 700; }
      .label { font-size: 14px; }
      .small { font-size: 12px; }
      .tiny { font-size: 10px; }
      .boundary { fill: #fff; stroke: #111; stroke-width: 1.5; }
      .usecase { fill: #fff; stroke: #111; stroke-width: 1.3; }
      .actor { stroke: #111; stroke-width: 1.25; fill: none; }
      .line { stroke: #111; stroke-width: 1.15; fill: none; marker-end: url(#arrow); }
      .dashed { stroke: #111; stroke-width: 1; stroke-dasharray: 5 4; fill: none; marker-end: url(#arrow); }
      .box { fill: #fff; stroke: #111; stroke-width: 1.25; }
      .soft { fill: #f7f7f7; stroke: #111; stroke-width: 1.1; }
      .decision { fill: #fff; stroke: #111; stroke-width: 1.25; }
      .class { fill: #fff; stroke: #111; stroke-width: 1.2; }
      .classHead { fill: #efefef; stroke: #111; stroke-width: 1.2; }
      .relation { stroke: #111; stroke-width: 1; fill: none; }
      .participant { fill: #fff; stroke: #111; stroke-width: 1.2; }
      .lifeline { stroke: #888; stroke-width: 1; stroke-dasharray: 6 5; }
      .note { fill: #fffbe6; stroke: #111; stroke-width: 1; }
    </style>
  </defs>
  <rect width="100%" height="100%" fill="#fff"/>
  
<rect class="boundary" x="120" y="20" width="470" height="1135"/>
<circle class="actor" cx="55" cy="79" r="10"/>
<path class="actor" d="M55 89 L55 133 M33 107 L77 107 M55 133 L35 167 M55 133 L75 167"/>
<text x="55" y="188" text-anchor="middle" class="small">User</text>
<circle class="actor" cx="55" cy="264" r="10"/>
<path class="actor" d="M55 274 L55 318 M33 292 L77 292 M55 318 L35 352 M55 318 L75 352"/>
<text x="55" y="373" text-anchor="middle" class="small">Student</text>
<circle class="actor" cx="55" cy="494" r="10"/>
<path class="actor" d="M55 504 L55 548 M33 522 L77 522 M55 548 L35 582 M55 548 L75 582"/>
<text x="55" y="603" text-anchor="middle" class="small">Teacher</text>
<circle class="actor" cx="55" cy="784" r="10"/>
<path class="actor" d="M55 794 L55 838 M33 812 L77 812 M55 838 L35 872 M55 838 L75 872"/>
<text x="55" y="893" text-anchor="middle" class="small">Manager</text>
<circle class="actor" cx="55" cy="994" r="10"/>
<path class="actor" d="M55 1004 L55 1048 M33 1022 L77 1022 M55 1048 L35 1082 M55 1048 L75 1082"/>
<text x="55" y="1103" text-anchor="middle" class="small">Admin</text>
<path class="relation" d="M55 242 L55 157"/>
<path d="M55 157 L46 174 L64 174 Z" fill="#fff" stroke="#111" stroke-width="1.1"/>
<path class="relation" d="M55 472 L55 342"/>
<path d="M55 342 L46 359 L64 359 Z" fill="#fff" stroke="#111" stroke-width="1.1"/>
<path class="relation" d="M55 762 L55 572"/>
<path d="M55 572 L46 589 L64 589 Z" fill="#fff" stroke="#111" stroke-width="1.1"/>
<path class="relation" d="M55 972 L55 862"/>
<path d="M55 862 L46 879 L64 879 Z" fill="#fff" stroke="#111" stroke-width="1.1"/>
<ellipse class="usecase" cx="405" cy="70" rx="140" ry="18"/>
<text x="405" y="75" text-anchor="middle" class="small"><tspan x="405" y="75">Thanh toán khóa học</tspan></text>
<path class="relation" d="M80 115 L265 70"/>
<ellipse class="usecase" cx="405" cy="120" rx="140" ry="18"/>
<text x="405" y="125" text-anchor="middle" class="small"><tspan x="405" y="125">Cập nhật thông tin tài khoản</tspan></text>
<path class="relation" d="M80 115 L265 120"/>
<ellipse class="usecase" cx="405" cy="170" rx="140" ry="18"/>
<text x="405" y="175" text-anchor="middle" class="small"><tspan x="405" y="175">Xem lịch sử thanh toán</tspan></text>
<path class="relation" d="M80 115 L265 170"/>
<ellipse class="usecase" cx="405" cy="275" rx="140" ry="18"/>
<text x="405" y="280" text-anchor="middle" class="small"><tspan x="405" y="280">Xem điểm</tspan></text>
<path class="relation" d="M80 300 L265 275"/>
<ellipse class="usecase" cx="405" cy="325" rx="140" ry="18"/>
<text x="405" y="330" text-anchor="middle" class="small"><tspan x="405" y="330">Xem lịch học</tspan></text>
<path class="relation" d="M80 300 L265 325"/>
<ellipse class="usecase" cx="405" cy="375" rx="140" ry="18"/>
<text x="405" y="380" text-anchor="middle" class="small"><tspan x="405" y="380">Xem thông báo</tspan></text>
<path class="relation" d="M80 300 L265 375"/>
<ellipse class="usecase" cx="405" cy="485" rx="140" ry="18"/>
<text x="405" y="490" text-anchor="middle" class="small"><tspan x="405" y="490">Quản lý lớp học</tspan></text>
<path class="relation" d="M80 530 L265 485"/>
<ellipse class="usecase" cx="405" cy="535" rx="140" ry="18"/>
<text x="405" y="540" text-anchor="middle" class="small"><tspan x="405" y="540">Quản lý lịch học</tspan></text>
<path class="relation" d="M80 530 L265 535"/>
<ellipse class="usecase" cx="405" cy="585" rx="140" ry="18"/>
<text x="405" y="590" text-anchor="middle" class="small"><tspan x="405" y="590">Quản lý học viên</tspan></text>
<path class="relation" d="M80 530 L265 585"/>
<ellipse class="usecase" cx="405" cy="635" rx="140" ry="18"/>
<text x="405" y="640" text-anchor="middle" class="small"><tspan x="405" y="640">Quản lý thông báo</tspan></text>
<path class="relation" d="M80 530 L265 635"/>
<ellipse class="usecase" cx="405" cy="705" rx="140" ry="18"/>
<text x="405" y="710" text-anchor="middle" class="small"><tspan x="405" y="710">Đăng nhập</tspan></text>
<path class="relation" d="M80 115 L265 705"/>
<path class="relation" d="M80 300 L265 705"/>
<path class="relation" d="M80 530 L265 705"/>
<path class="relation" d="M80 820 L265 705"/>
<path class="relation" d="M80 1030 L265 705"/>
<ellipse class="usecase" cx="405" cy="755" rx="140" ry="18"/>
<text x="405" y="760" text-anchor="middle" class="small"><tspan x="405" y="760">Đăng kí</tspan></text>
<path class="relation" d="M80 115 L265 755"/>
<ellipse class="usecase" cx="405" cy="830" rx="140" ry="18"/>
<text x="405" y="835" text-anchor="middle" class="small"><tspan x="405" y="835">Dashboard</tspan></text>
<path class="relation" d="M80 820 L265 830"/>
<ellipse class="usecase" cx="405" cy="880" rx="140" ry="18"/>
<text x="405" y="885" text-anchor="middle" class="small"><tspan x="405" y="885">Quản lý bài viết</tspan></text>
<path class="relation" d="M80 820 L265 880"/>
<ellipse class="usecase" cx="405" cy="930" rx="140" ry="18"/>
<text x="405" y="935" text-anchor="middle" class="small"><tspan x="405" y="935">Audit thanh toán</tspan></text>
<path class="relation" d="M80 820 L265 930"/>
<ellipse class="usecase" cx="405" cy="980" rx="140" ry="18"/>
<text x="405" y="985" text-anchor="middle" class="small"><tspan x="405" y="985">Quản lý khóa học</tspan></text>
<path class="relation" d="M80 820 L265 980"/>
<ellipse class="usecase" cx="405" cy="1030" rx="140" ry="18"/>
<text x="405" y="1035" text-anchor="middle" class="small"><tspan x="405" y="1035">Quản lý giảng viên</tspan></text>
<path class="relation" d="M80 820 L265 1030"/>
<ellipse class="usecase" cx="405" cy="1080" rx="140" ry="18"/>
<text x="405" y="1085" text-anchor="middle" class="small"><tspan x="405" y="1085">Quản lý người dùng</tspan></text>
<path class="relation" d="M80 820 L265 1080"/>
<ellipse class="usecase" cx="405" cy="1130" rx="140" ry="18"/>
<text x="405" y="1135" text-anchor="middle" class="small"><tspan x="405" y="1135">Phân quyền RBAC</tspan></text>
<path class="relation" d="M80 1030 L265 1130"/>
</svg>
