<svg xmlns="http://www.w3.org/2000/svg" width="1300" height="1240" viewBox="0 0 1300 1240">
  <title>Tổng hợp 23 chức năng UseCase</title>
  <defs>
    <marker id="arrow" markerWidth="9" markerHeight="9" refX="9" refY="4.5" orient="auto" markerUnits="strokeWidth">
      <path d="M0,0 L9,4.5 L0,9 Z" fill="#111"/>
    </marker>
    <style>
      text { font-family: "Segoe UI", Arial, sans-serif; fill: #111; }
      .title { font-size: 24px; font-weight: 700; }
      .label { font-size: 14px; }
      .small { font-size: 12px; }
      .tiny { font-size: 10px; }
      .boundary { fill: #fff; stroke: #111; stroke-width: 1.5; }
      .usecase { fill: #fff; stroke: #111; stroke-width: 1.3; }
      .actor { stroke: #111; stroke-width: 1.25; fill: none; }
      .line { stroke: #111; stroke-width: 1.15; fill: none; marker-end: url(#arrow); }
      .dashed { stroke: #111; stroke-width: 1; stroke-dasharray: 5 4; fill: none; marker-end: url(#arrow); }
      .box { fill: #fff; stroke: #111; stroke-width: 1.25; }
      .soft { fill: #f7f7f7; stroke: #111; stroke-width: 1.1; }
      .decision { fill: #fff; stroke: #111; stroke-width: 1.25; }
      .class { fill: #fff; stroke: #111; stroke-width: 1.2; }
      .classHead { fill: #efefef; stroke: #111; stroke-width: 1.2; }
      .relation { stroke: #111; stroke-width: 1; fill: none; }
      .participant { fill: #fff; stroke: #111; stroke-width: 1.2; }
      .lifeline { stroke: #888; stroke-width: 1; stroke-dasharray: 6 5; }
      .note { fill: #fffbe6; stroke: #111; stroke-width: 1; }
    </style>
  </defs>
  <rect width="100%" height="100%" fill="#fff"/>
  <text x="650" y="34" text-anchor="middle" class="title">Tổng hợp 23 chức năng UseCase</text>
<rect class="note" x="70" y="60" width="1160" height="58" rx="8"/>
<text x="650" y="94" text-anchor="middle" class="label"><tspan x="650" y="94">UML/chuc-nang khớp với 23 chức năng trong sơ đồ use case tổng quát.</tspan></text>
<rect class="box" x="85" y="145" width="540" height="62" rx="8"/>
<text x="355" y="162" text-anchor="middle" class="small"><tspan x="355" y="162">UC01. Xem nội dung công khai</tspan><tspan x="355" y="175">hoat-dong.svg </tspan><tspan x="355" y="188"> lop.svg </tspan><tspan x="355" y="201"> trinh-tu.svg</tspan></text>
<rect class="box" x="675" y="145" width="540" height="62" rx="8"/>
<text x="945" y="162" text-anchor="middle" class="small"><tspan x="945" y="162">UC02. Thanh toán khóa học</tspan><tspan x="945" y="175">hoat-dong.svg </tspan><tspan x="945" y="188"> lop.svg </tspan><tspan x="945" y="201"> trinh-tu.svg</tspan></text>
<rect class="box" x="85" y="233" width="540" height="62" rx="8"/>
<text x="355" y="250" text-anchor="middle" class="small"><tspan x="355" y="250">UC03. Cập nhật thông tin tài khoản</tspan><tspan x="355" y="263">hoat-dong.svg </tspan><tspan x="355" y="276"> lop.svg </tspan><tspan x="355" y="289"> trinh-tu.svg</tspan></text>
<rect class="box" x="675" y="233" width="540" height="62" rx="8"/>
<text x="945" y="250" text-anchor="middle" class="small"><tspan x="945" y="250">UC04. Xem lịch sử thanh toán</tspan><tspan x="945" y="263">hoat-dong.svg </tspan><tspan x="945" y="276"> lop.svg </tspan><tspan x="945" y="289"> trinh-tu.svg</tspan></text>
<rect class="box" x="85" y="321" width="540" height="62" rx="8"/>
<text x="355" y="338" text-anchor="middle" class="small"><tspan x="355" y="338">UC05. Đổi mật khẩu</tspan><tspan x="355" y="351">hoat-dong.svg </tspan><tspan x="355" y="364"> lop.svg </tspan><tspan x="355" y="377"> trinh-tu.svg</tspan></text>
<rect class="box" x="675" y="321" width="540" height="62" rx="8"/>
<text x="945" y="338" text-anchor="middle" class="small"><tspan x="945" y="338">UC06. Xem điểm</tspan><tspan x="945" y="351">hoat-dong.svg </tspan><tspan x="945" y="364"> lop.svg </tspan><tspan x="945" y="377"> trinh-tu.svg</tspan></text>
<rect class="box" x="85" y="409" width="540" height="62" rx="8"/>
<text x="355" y="426" text-anchor="middle" class="small"><tspan x="355" y="426">UC07. Xem lớp / lịch học</tspan><tspan x="355" y="439">hoat-dong.svg </tspan><tspan x="355" y="452"> lop.svg </tspan><tspan x="355" y="465"> trinh-tu.svg</tspan></text>
<rect class="box" x="675" y="409" width="540" height="62" rx="8"/>
<text x="945" y="426" text-anchor="middle" class="small"><tspan x="945" y="426">UC08. Xem thông báo</tspan><tspan x="945" y="439">hoat-dong.svg </tspan><tspan x="945" y="452"> lop.svg </tspan><tspan x="945" y="465"> trinh-tu.svg</tspan></text>
<rect class="box" x="85" y="497" width="540" height="62" rx="8"/>
<text x="355" y="514" text-anchor="middle" class="small"><tspan x="355" y="514">UC09. Quản lý lớp học</tspan><tspan x="355" y="527">hoat-dong.svg </tspan><tspan x="355" y="540"> lop.svg </tspan><tspan x="355" y="553"> trinh-tu.svg</tspan></text>
<rect class="box" x="675" y="497" width="540" height="62" rx="8"/>
<text x="945" y="514" text-anchor="middle" class="small"><tspan x="945" y="514">UC10. Quản lý lịch học</tspan><tspan x="945" y="527">hoat-dong.svg </tspan><tspan x="945" y="540"> lop.svg </tspan><tspan x="945" y="553"> trinh-tu.svg</tspan></text>
<rect class="box" x="85" y="585" width="540" height="62" rx="8"/>
<text x="355" y="602" text-anchor="middle" class="small"><tspan x="355" y="602">UC11. Quản lý học viên</tspan><tspan x="355" y="615">hoat-dong.svg </tspan><tspan x="355" y="628"> lop.svg </tspan><tspan x="355" y="641"> trinh-tu.svg</tspan></text>
<rect class="box" x="675" y="585" width="540" height="62" rx="8"/>
<text x="945" y="602" text-anchor="middle" class="small"><tspan x="945" y="602">UC12. Quản lý thông báo</tspan><tspan x="945" y="615">hoat-dong.svg </tspan><tspan x="945" y="628"> lop.svg </tspan><tspan x="945" y="641"> trinh-tu.svg</tspan></text>
<rect class="box" x="85" y="673" width="540" height="62" rx="8"/>
<text x="355" y="690" text-anchor="middle" class="small"><tspan x="355" y="690">UC13. Đăng ký, đăng nhập</tspan><tspan x="355" y="703">hoat-dong.svg </tspan><tspan x="355" y="716"> lop.svg </tspan><tspan x="355" y="729"> trinh-tu.svg</tspan></text>
<rect class="box" x="675" y="673" width="540" height="62" rx="8"/>
<text x="945" y="690" text-anchor="middle" class="small"><tspan x="945" y="690">UC14. Dashboard thống kê</tspan><tspan x="945" y="703">hoat-dong.svg </tspan><tspan x="945" y="716"> lop.svg </tspan><tspan x="945" y="729"> trinh-tu.svg</tspan></text>
<rect class="box" x="85" y="761" width="540" height="62" rx="8"/>
<text x="355" y="778" text-anchor="middle" class="small"><tspan x="355" y="778">UC15. Quản lý bài viết</tspan><tspan x="355" y="791">hoat-dong.svg </tspan><tspan x="355" y="804"> lop.svg </tspan><tspan x="355" y="817"> trinh-tu.svg</tspan></text>
<rect class="box" x="675" y="761" width="540" height="62" rx="8"/>
<text x="945" y="778" text-anchor="middle" class="small"><tspan x="945" y="778">UC16. Quản lý danh mục bài viết</tspan><tspan x="945" y="791">hoat-dong.svg </tspan><tspan x="945" y="804"> lop.svg </tspan><tspan x="945" y="817"> trinh-tu.svg</tspan></text>
<rect class="box" x="85" y="849" width="540" height="62" rx="8"/>
<text x="355" y="866" text-anchor="middle" class="small"><tspan x="355" y="866">UC17. Xem audit bảo mật</tspan><tspan x="355" y="879">hoat-dong.svg </tspan><tspan x="355" y="892"> lop.svg </tspan><tspan x="355" y="905"> trinh-tu.svg</tspan></text>
<rect class="box" x="675" y="849" width="540" height="62" rx="8"/>
<text x="945" y="866" text-anchor="middle" class="small"><tspan x="945" y="866">UC18. Xem audit thanh toán</tspan><tspan x="945" y="879">hoat-dong.svg </tspan><tspan x="945" y="892"> lop.svg </tspan><tspan x="945" y="905"> trinh-tu.svg</tspan></text>
<rect class="box" x="85" y="937" width="540" height="62" rx="8"/>
<text x="355" y="954" text-anchor="middle" class="small"><tspan x="355" y="954">UC19. Quản lý danh mục khóa học</tspan><tspan x="355" y="967">hoat-dong.svg </tspan><tspan x="355" y="980"> lop.svg </tspan><tspan x="355" y="993"> trinh-tu.svg</tspan></text>
<rect class="box" x="675" y="937" width="540" height="62" rx="8"/>
<text x="945" y="954" text-anchor="middle" class="small"><tspan x="945" y="954">UC20. Quản lý khóa học</tspan><tspan x="945" y="967">hoat-dong.svg </tspan><tspan x="945" y="980"> lop.svg </tspan><tspan x="945" y="993"> trinh-tu.svg</tspan></text>
<rect class="box" x="85" y="1025" width="540" height="62" rx="8"/>
<text x="355" y="1042" text-anchor="middle" class="small"><tspan x="355" y="1042">UC21. Quản lý giảng viên</tspan><tspan x="355" y="1055">hoat-dong.svg </tspan><tspan x="355" y="1068"> lop.svg </tspan><tspan x="355" y="1081"> trinh-tu.svg</tspan></text>
<rect class="box" x="675" y="1025" width="540" height="62" rx="8"/>
<text x="945" y="1042" text-anchor="middle" class="small"><tspan x="945" y="1042">UC22. Quản lý người dùng</tspan><tspan x="945" y="1055">hoat-dong.svg </tspan><tspan x="945" y="1068"> lop.svg </tspan><tspan x="945" y="1081"> trinh-tu.svg</tspan></text>
<rect class="box" x="85" y="1113" width="540" height="62" rx="8"/>
<text x="355" y="1130" text-anchor="middle" class="small"><tspan x="355" y="1130">UC23. Phân quyền RBAC</tspan><tspan x="355" y="1143">hoat-dong.svg </tspan><tspan x="355" y="1156"> lop.svg </tspan><tspan x="355" y="1169"> trinh-tu.svg</tspan></text>
</svg>
